<svg width="356" height="66" viewBox="0 0 356 66" fill="none" xmlns="http://www.w3.org/2000/svg">
<g clip-path="url(#clip0_23_14)">
<path d="M49.2422 7.88H54.8742C56.9649 7.88 58.9489 7.85866 60.8262 7.816C62.7462 7.77333 64.4529 7.73067 65.9462 7.688L65.6262 8.968C64.1756 9.01066 63.0449 9.18133 62.2342 9.48C61.4236 9.736 60.7836 10.248 60.3142 11.016C59.8876 11.7413 59.4609 12.8933 59.0342 14.472L50.5862 46.216C50.2022 47.752 50.0316 48.904 50.0742 49.672C50.1596 50.44 50.5436 50.952 51.2262 51.208C51.9089 51.464 52.9542 51.6347 54.3622 51.72L54.1062 53C52.6556 52.9147 50.9702 52.872 49.0502 52.872C47.1729 52.8293 45.1889 52.808 43.0982 52.808C40.9222 52.808 38.8529 52.8293 36.8902 52.872C34.9276 52.872 33.3702 52.9147 32.2182 53L32.4742 51.72C33.9676 51.6347 35.0982 51.464 35.8662 51.208C36.6769 50.952 37.3169 50.44 37.7862 49.672C38.2556 48.904 38.6822 47.752 39.0662 46.216L48.3462 11.72L21.7862 53.32H20.3782L14.9382 14.984L7.19424 44.488C6.85291 45.768 6.70358 46.9413 6.74624 48.008C6.78891 49.0747 7.19424 49.9493 7.96224 50.632C8.77291 51.272 10.1809 51.6347 12.1862 51.72L11.9302 53C11.4182 52.9573 10.7142 52.936 9.81824 52.936C8.96491 52.8933 8.04758 52.872 7.06624 52.872C6.12758 52.8293 5.27424 52.808 4.50624 52.808C3.43958 52.808 2.35158 52.8293 1.24224 52.872C0.132911 52.872 -0.784423 52.9147 -1.50976 53L-1.25376 51.72C0.239577 51.6347 1.43424 51.272 2.33024 50.632C3.22624 49.9493 3.93024 49.0747 4.44224 48.008C4.99691 46.9413 5.44491 45.768 5.78624 44.488L13.7862 14.472C14.2129 12.8933 14.3836 11.7413 14.2982 11.016C14.2129 10.248 13.8289 9.736 13.1462 9.48C12.5062 9.18133 11.4609 9.01066 10.0102 8.968L10.3302 7.688C11.3969 7.73067 12.8049 7.77333 14.5542 7.816C16.3462 7.85866 18.2022 7.88 20.1222 7.88C21.1462 7.88 22.1702 7.85866 23.1942 7.816C24.2182 7.77333 25.1356 7.73067 25.9462 7.688L29.5942 38.6L49.2422 7.88ZM86.4912 48.648L78.8112 57.416L73.5632 25.352C73.3926 24.2427 73.2006 23.496 72.9872 23.112C72.7739 22.6853 72.4752 22.472 72.0912 22.472C71.6219 22.472 71.1952 22.7493 70.8112 23.304C70.4699 23.816 69.9579 25.0107 69.2752 26.888L67.9952 30.216H66.7792L68.3792 25.544C69.2752 22.9413 70.4059 21.192 71.7712 20.296C73.1792 19.4 74.7579 18.952 76.5072 18.952C78.3419 18.952 79.8566 19.464 81.0512 20.488C82.2459 21.4693 83.0352 23.3893 83.4192 26.248L86.4912 48.648ZM70.8112 61.832C72.8166 60.8933 74.8859 59.5707 77.0192 57.864C79.1952 56.2 81.4139 53.9387 83.6752 51.08C85.9792 48.1787 87.9846 45.1067 89.6912 41.864C91.4406 38.6213 92.7419 35.5707 93.5952 32.712C92.4432 32.072 91.3766 31.304 90.3952 30.408C89.4566 29.4693 88.7099 28.4453 88.1552 27.336C87.6006 26.184 87.3232 24.9893 87.3232 23.752C87.3232 22.2587 87.7286 21.0853 88.5392 20.232C89.3926 19.3787 90.5232 18.952 91.9312 18.952C93.5526 18.952 94.7259 19.4853 95.4512 20.552C96.1766 21.6187 96.5392 23.0907 96.5392 24.968C96.5392 26.9307 96.1979 29.1067 95.5152 31.496C94.8326 33.8427 93.8939 36.2747 92.6992 38.792C91.5472 41.3093 90.2032 43.7627 88.6672 46.152C87.1739 48.5413 85.5952 50.7387 83.9312 52.744C82.3526 54.664 80.6672 56.3707 78.8752 57.864C77.1259 59.4 75.2912 60.7013 73.3712 61.768C71.4939 62.8773 69.5952 63.7307 67.6752 64.328C66.8646 64.584 66.1179 64.7547 65.4352 64.84C64.7099 64.968 64.0699 65.032 63.5152 65.032C61.9792 65.032 60.7846 64.6907 59.9312 64.008C59.0779 63.3253 58.6512 62.3653 58.6512 61.128C58.6512 59.9333 59.0992 58.9093 59.9952 58.056C60.8486 57.2453 62.0006 56.84 63.4512 56.84C64.9019 56.84 66.2246 57.2667 67.4192 58.12C68.6566 58.9733 69.7872 60.2107 70.8112 61.832ZM152.117 7.688C151.477 9.352 150.815 11.3787 150.133 13.768C149.45 16.1147 148.746 18.9947 148.021 22.408H146.613C146.997 20.2747 147.167 18.376 147.125 16.712C147.125 15.0053 146.783 13.5547 146.101 12.36C145.29 10.9093 144.266 9.90666 143.029 9.352C141.834 8.75466 140.426 8.456 138.805 8.456C136.714 8.456 134.687 9.01066 132.725 10.12C130.805 11.1867 129.034 12.7013 127.413 14.664C125.791 16.6267 124.362 18.9093 123.125 21.512C121.93 24.072 120.991 26.8453 120.309 29.832C119.626 32.8187 119.285 35.8907 119.285 39.048C119.285 43.4 120.053 46.6 121.589 48.648C123.125 50.696 125.194 51.72 127.797 51.72C129.29 51.72 130.847 51.3787 132.469 50.696C134.133 50.0133 135.562 49.032 136.757 47.752C137.909 46.5147 138.89 45.1493 139.701 43.656C140.554 42.12 141.493 40.1147 142.517 37.64H143.925C142.858 41.5227 142.026 44.6587 141.429 47.048C140.874 49.3947 140.447 51.3787 140.149 53H138.741C138.869 52.104 138.933 51.3787 138.933 50.824C138.933 49.928 138.762 49.3947 138.421 49.224C138.079 49.0533 137.546 49.224 136.821 49.736C135.711 50.504 134.495 51.208 133.173 51.848C131.85 52.488 130.442 52.9787 128.949 53.32C127.498 53.704 125.898 53.896 124.149 53.896C118.005 53.896 113.482 52.488 110.581 49.672C107.679 46.8133 106.229 42.8453 106.229 37.768C106.229 34.7387 106.719 31.752 107.701 28.808C108.725 25.8213 110.154 23.0053 111.989 20.36C113.866 17.7147 116.106 15.368 118.709 13.32C121.354 11.272 124.277 9.672 127.477 8.52C130.677 7.368 134.111 6.792 137.781 6.792C139.487 6.792 140.917 6.984 142.069 7.368C143.263 7.752 144.266 8.264 145.077 8.904C145.93 9.544 146.655 10.2267 147.253 10.952C147.807 11.6347 148.362 11.72 148.917 11.208C149.514 10.6533 150.133 9.48 150.773 7.688H152.117ZM176.204 20.232C175.35 20.232 174.39 20.8293 173.324 22.024C172.3 23.2187 171.276 24.8187 170.252 26.824C169.228 28.8293 168.289 31.0693 167.436 33.544C166.582 36.0187 165.9 38.5573 165.388 41.16C164.876 43.7627 164.62 46.2587 164.62 48.648C164.62 50.0987 164.748 51.1227 165.004 51.72C165.302 52.3173 165.75 52.616 166.348 52.616C167.158 52.616 168.076 52.0613 169.1 50.952C170.124 49.8 171.126 48.264 172.108 46.344C173.132 44.3813 174.07 42.184 174.924 39.752C175.777 37.2773 176.46 34.7173 176.972 32.072C177.526 29.4267 177.804 26.8453 177.804 24.328C177.804 22.6213 177.654 21.512 177.356 21C177.057 20.488 176.673 20.232 176.204 20.232ZM155.02 43.208C155.02 41.2027 155.297 39.0907 155.852 36.872C156.406 34.6533 157.238 32.4987 158.348 30.408C159.457 28.2747 160.865 26.3547 162.572 24.648C164.321 22.8987 166.348 21.512 168.652 20.488C170.956 19.464 173.58 18.952 176.524 18.952C180.022 18.952 182.71 19.8693 184.588 21.704C186.465 23.5387 187.404 26.184 187.404 29.64C187.404 31.6453 187.126 33.7573 186.572 35.976C186.017 38.1947 185.185 40.3707 184.076 42.504C182.966 44.5947 181.537 46.5147 179.788 48.264C178.081 49.9707 176.076 51.336 173.772 52.36C171.468 53.384 168.844 53.896 165.9 53.896C162.401 53.896 159.713 52.9787 157.836 51.144C155.958 49.3093 155.02 46.664 155.02 43.208ZM217.354 20.232C216.5 20.232 215.54 20.8293 214.474 22.024C213.45 23.2187 212.426 24.8187 211.402 26.824C210.378 28.8293 209.439 31.0693 208.586 33.544C207.732 36.0187 207.05 38.5573 206.538 41.16C206.026 43.7627 205.77 46.2587 205.77 48.648C205.77 50.0987 205.898 51.1227 206.154 51.72C206.452 52.3173 206.9 52.616 207.498 52.616C208.308 52.616 209.226 52.0613 210.25 50.952C211.274 49.8 212.276 48.264 213.258 46.344C214.282 44.3813 215.22 42.184 216.074 39.752C216.927 37.2773 217.61 34.7173 218.122 32.072C218.676 29.4267 218.954 26.8453 218.954 24.328C218.954 22.6213 218.804 21.512 218.506 21C218.207 20.488 217.823 20.232 217.354 20.232ZM196.17 43.208C196.17 41.2027 196.447 39.0907 197.002 36.872C197.556 34.6533 198.388 32.4987 199.498 30.408C200.607 28.2747 202.015 26.3547 203.722 24.648C205.471 22.8987 207.498 21.512 209.802 20.488C212.106 19.464 214.73 18.952 217.674 18.952C221.172 18.952 223.86 19.8693 225.738 21.704C227.615 23.5387 228.554 26.184 228.554 29.64C228.554 31.6453 228.276 33.7573 227.722 35.976C227.167 38.1947 226.335 40.3707 225.226 42.504C224.116 44.5947 222.687 46.5147 220.938 48.264C219.231 49.9707 217.226 51.336 214.922 52.36C212.618 53.384 209.994 53.896 207.05 53.896C203.551 53.896 200.863 52.9787 198.986 51.144C197.108 49.3093 196.17 46.664 196.17 43.208ZM245.576 53H235.4L248.072 10.312C248.498 8.86133 248.456 7.79467 247.944 7.112C247.432 6.42933 246.13 6.088 244.04 6.088L244.488 4.744C247.73 4.70133 250.61 4.46666 253.128 4.04C255.688 3.57066 258.141 2.93067 260.488 2.12L245.576 53ZM263.176 47.816C262.962 48.8827 262.941 49.608 263.112 49.992C263.282 50.3333 263.581 50.504 264.008 50.504C264.52 50.504 265.074 50.2267 265.672 49.672C266.312 49.1173 266.994 47.88 267.72 45.96L268.936 42.632H270.152L268.552 47.304C267.912 49.096 267.058 50.4613 265.992 51.4C264.968 52.3387 263.816 52.9787 262.536 53.32C261.298 53.704 260.061 53.896 258.824 53.896C256.477 53.896 254.834 53.2347 253.896 51.912C253 50.5467 252.808 48.6053 253.32 46.088L254.472 41.352C255.026 39.0907 254.941 37.4907 254.216 36.552C253.49 35.5707 251.933 34.952 249.544 34.696V34.44C251.506 34.312 253.426 34.3333 255.304 34.504C257.224 34.632 258.909 35.016 260.36 35.656C261.853 36.2533 262.941 37.192 263.624 38.472C264.349 39.752 264.477 41.4587 264.008 43.592L263.176 47.816ZM265.288 20.168C264.69 20.168 264.157 20.2533 263.688 20.424C263.261 20.5947 262.834 20.8507 262.408 21.192C261.682 21.7893 261.085 22.6427 260.616 23.752C260.189 24.8613 259.741 26.056 259.272 27.336C258.845 28.5733 258.29 29.7467 257.608 30.856C256.925 31.9653 256.008 32.8827 254.856 33.608C253.704 34.3333 252.189 34.6747 250.312 34.632L249.672 34.696L249.8 33.992C251.634 33.864 253.085 33.4373 254.152 32.712C255.218 31.944 256.072 31.0267 256.712 29.96C257.352 28.8507 257.864 27.6987 258.248 26.504C258.674 25.3093 259.101 24.1787 259.528 23.112C259.997 22.0027 260.637 21.1067 261.448 20.424C262.13 19.8693 262.834 19.4853 263.56 19.272C264.328 19.0587 264.989 18.952 265.544 18.952C267.805 18.952 269.469 19.6133 270.536 20.936C271.645 22.216 272.178 23.752 272.136 25.544C272.136 26.7387 271.88 27.8053 271.368 28.744C270.856 29.64 270.152 30.344 269.256 30.856C268.36 31.3253 267.357 31.56 266.248 31.56C264.712 31.56 263.538 31.1547 262.728 30.344C261.96 29.4907 261.576 28.5307 261.576 27.464C261.618 25.928 262.13 24.6053 263.112 23.496C264.136 22.344 265.288 21.4693 266.568 20.872C266.44 20.6587 266.248 20.488 265.992 20.36C265.736 20.232 265.501 20.168 265.288 20.168ZM290.403 9.48C290.446 7.432 291.15 5.87466 292.515 4.808C293.923 3.74133 295.609 3.208 297.571 3.208C299.321 3.208 300.622 3.592 301.475 4.36C302.371 5.08533 302.798 6.152 302.755 7.56C302.713 9.352 301.987 10.824 300.579 11.976C299.214 13.128 297.529 13.704 295.523 13.704C293.859 13.704 292.579 13.3413 291.683 12.616C290.787 11.848 290.361 10.8027 290.403 9.48ZM287.843 25.288C288.526 23.3253 288.313 22.344 287.203 22.344C286.521 22.344 285.881 22.6853 285.283 23.368C284.686 24.0507 284.046 25.224 283.363 26.888L282.019 30.472H280.803L282.595 25.544C283.193 23.88 283.939 22.5787 284.835 21.64C285.774 20.6587 286.841 19.976 288.035 19.592C289.23 19.1653 290.489 18.952 291.811 18.952C293.39 18.952 294.627 19.2293 295.523 19.784C296.419 20.3387 297.059 21.064 297.443 21.96C297.827 22.8133 297.998 23.7733 297.955 24.84C297.913 25.864 297.721 26.888 297.379 27.912L290.659 47.56C290.318 48.6693 290.233 49.4373 290.403 49.864C290.617 50.2907 290.979 50.504 291.491 50.504C291.961 50.504 292.515 50.2267 293.155 49.672C293.795 49.1173 294.478 47.88 295.203 45.96L296.419 42.632H297.635L296.035 47.304C295.395 49.0533 294.606 50.4187 293.667 51.4C292.729 52.3387 291.683 52.9787 290.531 53.32C289.379 53.704 288.249 53.896 287.139 53.896C285.262 53.896 283.79 53.4907 282.723 52.68C281.657 51.8693 281.038 50.6747 280.867 49.096C280.697 47.5173 280.995 45.576 281.763 43.272L287.843 25.288ZM316.138 39.368C317.716 38.6853 319.231 37.9173 320.682 37.064C322.132 36.168 323.412 35.208 324.522 34.184C326.186 32.6053 327.551 30.792 328.618 28.744C329.684 26.6533 330.218 24.4133 330.218 22.024C330.218 21.2987 330.132 20.808 329.962 20.552C329.791 20.296 329.535 20.168 329.194 20.168C328.298 20.168 327.316 20.6587 326.25 21.64C325.183 22.5787 324.138 23.8587 323.114 25.48C322.09 27.0587 321.151 28.872 320.298 30.92C319.487 32.9253 318.826 35.016 318.314 37.192C317.802 39.3253 317.546 41.416 317.546 43.464C317.546 45.896 318.015 47.5387 318.954 48.392C319.935 49.2453 321.194 49.672 322.73 49.672C323.711 49.672 325.055 49.3307 326.762 48.648C328.468 47.9227 330.154 46.6427 331.818 44.808L332.842 45.32C331.946 46.728 330.751 48.0933 329.258 49.416C327.764 50.7387 326.015 51.8267 324.01 52.68C322.004 53.4907 319.786 53.896 317.354 53.896C315.391 53.896 313.599 53.5547 311.978 52.872C310.399 52.1893 309.14 51.1867 308.202 49.864C307.263 48.4987 306.794 46.8347 306.794 44.872C306.794 42.4827 307.178 40.072 307.946 37.64C308.714 35.208 309.802 32.8827 311.21 30.664C312.618 28.4027 314.303 26.3973 316.266 24.648C318.271 22.8987 320.468 21.512 322.858 20.488C325.247 19.464 327.828 18.952 330.602 18.952C332.65 18.952 334.378 19.4 335.786 20.296C337.194 21.1493 337.898 22.4933 337.898 24.328C337.898 25.9493 337.45 27.4853 336.554 28.936C335.658 30.344 334.442 31.6453 332.906 32.84C331.412 34.0347 329.706 35.1013 327.786 36.04C325.908 36.9787 323.967 37.7893 321.962 38.472C319.956 39.1547 317.994 39.688 316.074 40.072L316.138 39.368ZM344.067 49.864C344.067 47.9867 344.707 46.4507 345.987 45.256C347.267 44.0613 348.846 43.464 350.723 43.464C352.217 43.464 353.369 43.8267 354.179 44.552C355.033 45.2347 355.459 46.2587 355.459 47.624C355.459 48.6907 355.161 49.7147 354.563 50.696C353.966 51.6347 353.155 52.4027 352.131 53C351.107 53.5973 349.955 53.896 348.675 53.896C347.225 53.896 346.094 53.5547 345.283 52.872C344.473 52.1467 344.067 51.144 344.067 49.864Z" fill="black"/>
</g>
<defs>
<clipPath id="clip0_23_14">
<rect width="356" height="66" fill="white"/>
</clipPath>
</defs>
</svg>
